<svg xmlns="http://www.w3.org/2000/svg" width="98.835" height="98.835" viewBox="0 0 98.835 98.835"><defs><style>.a{fill:#fff;stroke:#333;stroke-width:2px;}</style></defs><g transform="translate(1 1)"><g transform="translate(0 0)"><circle class="a" cx="3.646" cy="3.646" r="3.646" transform="translate(69.391 36.103)"/><path class="a" d="M81.7,7.565H76.787V3.783a3.783,3.783,0,1,0-7.565,0V7.565H52.011V3.783a3.783,3.783,0,1,0-7.565,0V7.565H27.424V3.783a3.783,3.783,0,1,0-7.565,0V7.565H15.13A15.148,15.148,0,0,0,0,22.7V81.7a15.148,15.148,0,0,0,15.13,15.13H44.067a3.783,3.783,0,0,0,0-7.565H15.13A7.574,7.574,0,0,1,7.565,81.7V22.7A7.574,7.574,0,0,1,15.13,15.13h4.728v3.783a3.783,3.783,0,1,0,7.565,0V15.13H44.446v3.783a3.783,3.783,0,1,0,7.565,0V15.13H69.222v3.783a3.783,3.783,0,1,0,7.565,0V15.13H81.7A7.574,7.574,0,0,1,89.27,22.7V44.257a3.783,3.783,0,0,0,7.565,0V22.7A15.148,15.148,0,0,0,81.7,7.565Z" transform="translate(0 0)"/><path class="a" d="M292.885,270a22.885,22.885,0,1,0,22.885,22.885A22.911,22.911,0,0,0,292.885,270Zm0,38.2a15.32,15.32,0,1,1,15.32-15.32A15.337,15.337,0,0,1,292.885,308.2Z" transform="translate(-218.935 -218.935)"/><path class="a" d="M380.267,337.754h-1.7v-3.972a3.783,3.783,0,1,0-7.565,0v7.754a3.782,3.782,0,0,0,3.783,3.783h5.485a3.783,3.783,0,1,0,0-7.565Z" transform="translate(-300.832 -267.587)"/><circle class="a" cx="3.646" cy="3.646" r="3.646" transform="translate(52.985 36.103)"/><circle class="a" cx="3.646" cy="3.646" r="3.646" transform="translate(36.579 52.509)"/><circle class="a" cx="3.646" cy="3.646" r="3.646" transform="translate(20.174 36.103)"/><circle class="a" cx="3.646" cy="3.646" r="3.646" transform="translate(20.174 52.509)"/><circle class="a" cx="3.646" cy="3.646" r="3.646" transform="translate(20.174 68.914)"/><circle class="a" cx="3.646" cy="3.646" r="3.646" transform="translate(36.579 68.914)"/><circle class="a" cx="3.646" cy="3.646" r="3.646" transform="translate(36.579 36.103)"/></g></g></svg>