<svg xmlns="http://www.w3.org/2000/svg" width="143.61" height="92.742" viewBox="0 0 143.61 92.742"><defs><style>.a{fill:#fff;stroke:#333;stroke-width:3px;}</style></defs><g transform="translate(1.501 -88.836)"><path class="a" d="M361.932,156.372a16.65,16.65,0,1,0-16.65-16.65A16.669,16.669,0,0,0,361.932,156.372Zm0-24.853a8.2,8.2,0,1,1-8.2,8.2A8.213,8.213,0,0,1,361.932,131.519Z" transform="translate(-248.07 -23.519)"/><path class="a" d="M140.609,293.095a26.748,26.748,0,0,0-47.392-17.007,34.772,34.772,0,0,0-45.827,0A26.748,26.748,0,0,0,0,293.095v4.223H35.822a34.995,34.995,0,0,0-.359,4.994v4.223h69.682v-4.223a34.991,34.991,0,0,0-.359-4.994h35.823ZM8.937,288.872A18.3,18.3,0,0,1,41.663,282.5a34.8,34.8,0,0,0-3.5,6.375Zm35.309,9.217a26.4,26.4,0,0,1,52.115,0Zm58.2-9.217a34.836,34.836,0,0,0-3.5-6.375,18.3,18.3,0,0,1,32.726,6.375Z" transform="translate(0 -126.457)"/><path class="a" d="M52.512,156.373a16.65,16.65,0,1,0-16.65-16.65A16.669,16.669,0,0,0,52.512,156.373Zm0-24.853a8.2,8.2,0,1,1-8.2,8.2A8.213,8.213,0,0,1,52.512,131.519Z" transform="translate(-25.766 -23.52)"/><path class="a" d="M195.826,132.568a21.116,21.116,0,1,0-21.116-21.116A21.14,21.14,0,0,0,195.826,132.568Zm0-33.785a12.67,12.67,0,1,1-12.67,12.67A12.684,12.684,0,0,1,195.826,98.782Z" transform="translate(-125.522)"/></g></svg>