<svg xmlns="http://www.w3.org/2000/svg" width="78.125" height="78.124" viewBox="0 0 78.125 78.124"><defs><style>.a{fill:#fff;}</style></defs><path class="a" d="M78.755,61.223,64.21,46.678l1.053-1.053.369.369a1.259,1.259,0,0,0,1.782,0l3.78-3.78a1.259,1.259,0,0,0,0-1.782L64,33.24V9.82A8.831,8.831,0,0,0,55.183,1H7.3A6.308,6.308,0,0,0,1,7.3V17.381a1.26,1.26,0,0,0,1.26,1.26h8.82V72.824a6.308,6.308,0,0,0,6.3,6.3H62.743a6.308,6.308,0,0,0,6.3-6.3V70.3a1.26,1.26,0,0,0-1.26-1.26H64V56.335l9.82,9.82a1.259,1.259,0,0,0,1.782,0L78.755,63A1.259,1.259,0,0,0,78.755,61.223ZM56.443,50.881l-4.519-4.519,7.039-7.039,4.519,4.519Zm-.522,3.042-2,2-7.039-7.039,2-2Zm10.6-10.6-7.039-7.039,2-2,7.039,7.039Zm-55.443-27.2H3.52V7.3a3.78,3.78,0,0,1,7.56,0Zm55.443,56.7a3.785,3.785,0,0,1-3.78,3.78H22.419a6.267,6.267,0,0,0,1.263-3.78v-1.26H66.524Zm-5.04-3.78H22.421a1.26,1.26,0,0,0-1.26,1.26v2.52a3.78,3.78,0,1,1-7.56,0V7.3a6.235,6.235,0,0,0-1.293-3.78H55.183a6.308,6.308,0,0,1,6.3,6.3V31.242a1.257,1.257,0,0,0-.891.369l-3.78,3.78a1.259,1.259,0,0,0,0,1.782l.369.369-7.039,7.039-.369-.369a1.259,1.259,0,0,0-1.782,0l-3.78,3.78a1.259,1.259,0,0,0,0,1.782l8.821,8.82a1.259,1.259,0,0,0,1.782,0l3.78-3.78a1.259,1.259,0,0,0,0-1.782l-.369-.369,1.053-1.053,2.205,2.205Zm13.231-5.562L61.06,49.828l1.368-1.368L76.083,62.113Z" transform="translate(-1 -1)"/><path class="a" d="M14,19H55.582v2.52H14Z" transform="translate(2.381 3.681)"/><path class="a" d="M14,27H50.542v2.52H14Z" transform="translate(2.381 5.762)"/><path class="a" d="M14,23H55.582v2.52H14Z" transform="translate(2.381 4.722)"/><path class="a" d="M14,11H55.582v2.52H14Z" transform="translate(2.381 1.601)"/><path class="a" d="M14,7H55.582V9.52H14Z" transform="translate(2.381 0.56)"/><path class="a" d="M14,15H55.582v2.52H14Z" transform="translate(2.381 2.641)"/><path class="a" d="M14,31H48.022v2.52H14Z" transform="translate(2.381 6.802)"/><path class="a" d="M24.341,35A11.341,11.341,0,1,0,35.681,46.341,11.354,11.354,0,0,0,24.341,35Zm0,20.161a8.82,8.82,0,1,1,8.82-8.82A8.831,8.831,0,0,1,24.341,55.161Z" transform="translate(2.121 7.842)"/><path class="a" d="M23.3,39a6.3,6.3,0,1,0,6.3,6.3A6.308,6.308,0,0,0,23.3,39Zm0,10.081a3.78,3.78,0,1,1,3.78-3.78A3.785,3.785,0,0,1,23.3,49.081Z" transform="translate(3.161 8.883)"/><path class="a" d="M40.56,49.26a1.26,1.26,0,0,0-2.308-.7l-.423.635A5.793,5.793,0,0,1,33,51.78V54.3a8.309,8.309,0,0,0,5.811-2.363A5.042,5.042,0,0,0,43.081,54.3h5.04V51.78h-5.04A2.523,2.523,0,0,1,40.56,49.26Z" transform="translate(7.322 11.223)"/></svg>