<svg xmlns="http://www.w3.org/2000/svg" width="69.648" height="67.709" viewBox="0 0 69.648 67.709"><defs><style>.a{fill:#fff;}</style></defs><g transform="translate(7.899 16.927)"><path class="a" d="M100.484,160.625H88.778v-2.257h9.365a1.15,1.15,0,0,0,1.171-1.128h0V121.128A1.15,1.15,0,0,0,98.144,120H67.706a1.15,1.15,0,0,0-1.171,1.128h0V157.24a1.15,1.15,0,0,0,1.17,1.128h9.366v2.257H65.365A9.212,9.212,0,0,0,56,169.653a1.15,1.15,0,0,0,1.17,1.128h51.509a1.15,1.15,0,0,0,1.171-1.128h0A9.212,9.212,0,0,0,100.484,160.625Zm-31.607-4.514V122.257h28.1v33.854ZM58.438,168.525a6.967,6.967,0,0,1,6.927-5.642H78.242a1.15,1.15,0,0,0,1.171-1.128h0v-3.385h7.024v3.385a1.15,1.15,0,0,0,1.17,1.128h12.878a6.967,6.967,0,0,1,6.927,5.642Z" transform="translate(-56 -120)"/></g><g transform="translate(23.429 21.187)"><g transform="translate(0 0)"><rect class="a" width="16.972" height="2.425"/></g></g><g transform="translate(42.737 21.187)"><g transform="translate(0 0)"><rect class="a" width="3.879" height="2.425"/></g></g><g transform="translate(23.34 26.036)"><g transform="translate(0 0)"><rect class="a" width="11.153" height="1.94"/></g></g><g transform="translate(37.342 26.036)"><g transform="translate(0 0)"><rect class="a" width="10" height="2" transform="translate(-0.334 -0.306)"/></g></g><g transform="translate(23.247 30.4)"><g transform="translate(0 0)"><rect class="a" width="3.394" height="2.425"/></g></g><g transform="translate(29.47 30.4)"><g transform="translate(0 0)"><rect class="a" width="16.972" height="2.425"/></g></g><g transform="translate(29.47 43.977)"><g transform="translate(0 0)"><rect class="a" width="16.972" height="1.94"/></g></g><g transform="translate(23.247 43.977)"><g transform="translate(0 0)"><rect class="a" width="3.394" height="1.94"/></g></g><g transform="translate(34.885 39.613)"><g transform="translate(0 0)"><rect class="a" width="11.638" height="2.425"/></g></g><g transform="translate(23.314 39.613)"><g transform="translate(0 0)"><rect class="a" width="9.213" height="2.425"/></g></g><g transform="translate(42.737 34.764)"><g transform="translate(0 0)"><rect class="a" width="3.879" height="2.425"/></g></g><g transform="translate(23.429 34.764)"><g transform="translate(0 0)"><rect class="a" width="16.972" height="2.425"/></g></g><g transform="translate(23.327 48.826)"><g transform="translate(0 0)"><rect class="a" width="10.183" height="1.94"/></g></g><g transform="translate(36.359 48.826)"><g transform="translate(0 0)"><rect class="a" width="10.183" height="1.94"/></g></g><g transform="translate(0 0)"><path class="a" d="M19.185,0H1.128A1.128,1.128,0,0,0,0,1.128H0V11.285a1.128,1.128,0,0,0,1.128,1.128h9.593l3.047,4.063a1.127,1.127,0,0,0,.9.451,1.1,1.1,0,0,0,.224-.023,1.126,1.126,0,0,0,.871-.832l.916-3.659h2.5a1.128,1.128,0,0,0,1.128-1.128h0V1.128A1.128,1.128,0,0,0,19.185,0ZM18.056,10.156H15.8a1.128,1.128,0,0,0-1.094.855l-.554,2.214-1.963-2.617a1.127,1.127,0,0,0-.9-.451H2.257v-7.9h15.8Z" transform="translate(0 0)"/></g><g transform="translate(49.336 0)"><path class="a" d="M355.185,0H337.128A1.128,1.128,0,0,0,336,1.128h0V11.285a1.128,1.128,0,0,0,1.128,1.128h2.5l.916,3.659a1.126,1.126,0,0,0,.871.832,1.1,1.1,0,0,0,.224.023,1.127,1.127,0,0,0,.9-.451l3.047-4.063h9.592a1.128,1.128,0,0,0,1.129-1.128h0V1.128A1.128,1.128,0,0,0,355.185,0Zm-1.129,10.156h-9.028a1.127,1.127,0,0,0-.9.451l-1.963,2.617-.554-2.214a1.128,1.128,0,0,0-1.094-.855h-2.257v-7.9h15.8Z" transform="translate(-336 0)"/></g><g transform="translate(53.6 4.7)"><g transform="translate(0 0)"><rect class="a" width="6.789" height="1.94"/></g></g><g transform="translate(62.813 4.7)"><g transform="translate(0 0)"><rect class="a" width="2.425" height="1.94"/></g></g><g transform="translate(4.625 4.7)"><g transform="translate(0 0)"><rect class="a" width="3.394" height="1.94"/></g></g><g transform="translate(9.959 4.7)"><g transform="translate(0 0)"><rect class="a" width="5.819" height="1.94"/></g></g></svg>